<svg
  xmlns="http://www.w3.org/2000/svg"
  width="250"
  height="200"
  version="1.1"
  viewBox="120 100 250 200"
>
  <defs>
    <clipPath id="clipPath18" clipPathUnits="userSpaceOnUse">
      <path d="M0 425.2h425.2V0H0z"></path>
    </clipPath>
  </defs>
  <g transform="matrix(1.33333 0 0 -1.33333 0 566.933)">
    <g>
      <g clipPath="url(#clipPath18)">
        <g transform="translate(104.337 209.567)">
          <path
            fill="#59c7b7"
            fillOpacity="1"
            fillRule="evenodd"
            stroke="none"
            d="M0 0c-.555 1.527.156 3.9.156 3.9s-2.015-.119-3.208 1.039c-1.348 1.308-1.523 3.119.475 4.678.849.662 2.029.746 2.445.895 3.936.599 7.663-.808 7.663-.808s.173-2.646-.194-5.513C7.126 2.542 7.043 1.694 6.233.314c-.648-1.1-2.39-2.48-3.773-2.293A3.097 3.097 0 000 0m3.96-5.229C12.953-.107 22.775 9.692 30.11 16.579c.104.099 15.049 13.218 24.67 18.986 1.34.805 3.723 1.849 3.121 3.388l-3.534 5.792c0-.003-.003-.006-.009-.006-.03.053-.06.114-.089.167l-.439.722c-.972.644-2.348-.071-3.154-.634-10.527-7.355-23.202-16.116-27.405-18.244-6.827-3.463-23.543-10.635-29.18-15.376C-10.065 7.881-11.944 3.7-9-.789c2.738-4.182 6.205-8.285 12.96-4.44"
          ></path>
        </g>
        <g transform="translate(104.337 209.567)">
          <path
            fill="none"
            stroke="#4a2d32"
            strokeDasharray="none"
            strokeLinecap="butt"
            strokeLinejoin="miter"
            strokeMiterlimit="10"
            strokeOpacity="1"
            strokeWidth="1"
            d="M0 0c-.555 1.527.156 3.9.156 3.9s-2.015-.119-3.208 1.039c-1.348 1.308-1.523 3.119.475 4.678.849.662 2.029.746 2.445.895 3.936.599 7.663-.808 7.663-.808s.173-2.646-.194-5.513C7.126 2.542 7.043 1.694 6.233.314c-.648-1.1-2.39-2.48-3.773-2.293A3.097 3.097 0 000 0zm3.96-5.229C12.953-.107 22.775 9.692 30.11 16.579c.104.099 15.049 13.218 24.67 18.986 1.34.805 3.723 1.849 3.121 3.388l-3.534 5.792c0-.003-.003-.006-.009-.006-.03.053-.06.114-.089.167l-.439.722c-.972.644-2.348-.071-3.154-.634-10.527-7.355-23.202-16.116-27.405-18.244-6.827-3.463-23.543-10.635-29.18-15.376C-10.065 7.881-11.944 3.7-9-.789c2.738-4.182 6.205-8.285 12.96-4.44z"
          ></path>
        </g>
        <g transform="translate(189.313 265.894)">
          <path
            fill="#4a2d32"
            fillOpacity="1"
            fillRule="evenodd"
            stroke="none"
            d="M0 0c12.504 5.118 24.834 10.583 35.594 18.992 5.616 4.383 8.292 8.142 10.23 14.683 2.865-2.81 2.98-4.29.428-7.463-4.957-6.175-11.328-10.643-17.943-14.822C16.417 3.873 3.488-1.466-9.478-6.766c-5.64-2.307-11.136-4.984-16.699-7.492C-17.941-8.602-9.25-3.786 0 0m14.427 34.504C-.372 20.473-10.465 2.19-26.784-10.493-13.197 4.62-2.201 22.123 14.427 34.504m-16.654-9.637C2.762 31.084 8.44 36.688 15.124 41.123c2.207 1.466 4.681 2.58 7.142 3.606 1.313.55 2.846.575 4.334.598C7.072 35.514-5.723 18.591-18.42 1.741c-4.349-5.522-7.587-9.721-9.092-10.982C-22.257-1.145-8.07 17.591-2.227 24.867m37.348 14.19C18.061 32.539 6.432 19.446-5.553 6.766c-4.083-4.322-8.392-8.637-12.957-12.45-1.303-1.086-5.489-4.007-7.059-5.15.491.595 3.24 2.921 3.361 3.022C-12.974-.024-5.744 9.578 1.927 18.786c7.046 8.455 14.525 16.494 23.694 22.759.279.19.544.393.823.576 4.381 2.834 6.487 2.129 8.677-3.064M-11.356-1.579c-.703-.293-3.281-2.125-4.005-2.39C-4.854 5.864 8.436 18.894 19.284 28.335c4.005 3.487 9.262 5.603 14.104 8.038 2.548 1.281 3.575.47 2.868-2.357-.668-2.685-1.613-5.716-3.448-7.611-3.997-4.12-8.25-8.241-13.098-11.226C11.451 10.094 2.66 5.88-5.915 1.312-7.835.288-9.424-.581-11.356-1.579m51.063 38.797c3.154.175 4.876-1.575 3.789-4.493-1.135-3.055-2.732-6.185-4.921-8.552-6.277-6.796-14.272-11.34-22.47-15.397C6.656 4.105-2.997-.16-12.483-4.77c-3.423-1.667-6.607-3.822-9.903-5.754-.593-.372-3.349-1.719-3.349-1.719 3.787 2.737 10.529 7.416 14.547 9.512C-3.03 1.53 5.519 5.086 13.479 9.67c6.341 3.645 12.294 8.091 17.958 12.74 4.043 3.318 6.941 7.732 6.726 13.481-.021.442.983 1.295 1.544 1.327m-5.044 6.632c3.347.216 5.795-1.428 7.401-4.816-3.996-.936-5.901 1.438-7.401 4.816m11.281-.083c2.919-2.962 4.924-6.28 3.422-11.481-2.116 3.042-3.619 5.627-5.541 7.859-2 2.324-4.393 4.31-6.561 6.392 2.966.416 6.118-.167 8.68-2.77m-1.53-25.406C38.636 11.972 31.188 7.89 23.669 3.98 12.78-1.677 1.223-5.67-10.398-9.496c-.226-.077-7.384-2.754-8.226-2.804 1.216.502 9.786 4.053 11.003 4.544 1.246.501 2.488 1.006 3.747 1.466C6.53-2.496 16.701 1.812 26.27 7.438c8.105 4.767 15.777 10.098 21.695 17.604.207-.145.416-.29.626-.434-1.377-2.095-2.518-4.409-4.177-6.247M-27.395-17.43c.065.068.157.149.272.227.289.212.696.425.99.53 3.313 1.194 6.651 2.322 9.973 3.49C-4.304-9.021 7.684-5.187 19.359-.575c9.377 3.705 18.149 8.756 25.34 16.054 3.608 3.665 6.418 7.794 5.881 13.349-.044.472.157.99.321 1.458 2.025 5.578.74 10.437-3.409 14.501-4.055 3.979-8.879 4.215-14.035 2.494-1.152-.385-2.518-.787-3.639-.531-4.533 1.04-8.669-.017-12.629-2.049-6.9-3.539-12.389-8.837-17.644-14.408-9.33-9.885-16.178-21.579-23.798-32.71-2.105-3.065-4.287-6.083-6.435-9.117a20.12 20.12 0 00-.187-.264z"
          ></path>
        </g>
        <g transform="translate(236.144 322.27)">
          <path
            fill="#f14670"
            fillOpacity="1"
            fillRule="evenodd"
            stroke="none"
            d="M0 0c-3.539 3.982-8.077 5.539-13.362 4.957-.587-.066-1.244-.403-1.563.548-.88 2.614-2.632 4.62-4.801 6.216-5.782 4.253-12.337 5.635-19.385 4.846-.696-.079-1.555-.589-1.934-1.165-.538-.815.196-1.489.807-2.091 2.563-2.521 2.582-5.625.048-8.109-.586-.573-1.249-1.078-1.931-1.537-2.621-1.765-5.387-3.342-7.871-5.278-4.9-3.815-8.812-10.068-5.106-17.872-2.53-2.34-3.511-5.339-2.958-8.69.3-1.803.982-3.605 1.811-5.244 2.904-5.738 9.328-8.795 15.682-7.508.46.093.83.093 1.164.012.383.262.84.443 1.381.513.086.059.172.12.268.175.383.223.76.359 1.125.427l4.776 2.786c.019-.02 1.699 1.371 1.68 1.392 1.593 1.636 4.927 4.725 4.993 4.623.038.091 7.835 9.321 8.036 9.736 2.077 4.225 7.529 4.074 7.578 4.064-.014.044 6.239.052 7.787-2.754.208-.069.774-.814.885-.897a.2.2 0 01.019-.012c.103-.037.209-.079.313-.127-.066.554.077 1.04.579 1.62C4.905-13.76 4.908-5.527 0 0"
          ></path>
        </g>
        <g transform="translate(236.144 322.27)">
          <path
            fill="none"
            stroke="#472d30"
            strokeDasharray="none"
            strokeLinecap="butt"
            strokeLinejoin="miter"
            strokeMiterlimit="10"
            strokeOpacity="1"
            strokeWidth="1"
            d="M0 0c-3.539 3.982-8.077 5.539-13.362 4.957-.587-.066-1.244-.403-1.563.548-.88 2.614-2.632 4.62-4.801 6.216-5.782 4.253-12.337 5.635-19.385 4.846-.696-.079-1.555-.589-1.934-1.165-.538-.815.196-1.489.807-2.091 2.563-2.521 2.582-5.625.048-8.109-.586-.573-1.249-1.078-1.931-1.537-2.621-1.765-5.387-3.342-7.871-5.278-4.9-3.815-8.812-10.068-5.106-17.872-2.53-2.34-3.511-5.339-2.958-8.69.3-1.803.982-3.605 1.811-5.244 2.904-5.738 9.328-8.795 15.682-7.508.46.093.83.093 1.164.012.383.262.84.443 1.381.513.086.059.172.12.268.175.383.223.76.359 1.125.427l4.776 2.786c.019-.02 1.699 1.371 1.68 1.392 1.593 1.636 4.927 4.725 4.993 4.623.038.091 7.835 9.321 8.036 9.736 2.077 4.225 7.529 4.074 7.578 4.064-.014.044 6.239.052 7.787-2.754.208-.069.774-.814.885-.897a.2.2 0 01.019-.012c.103-.037.209-.079.313-.127-.066.554.077 1.04.579 1.62C4.905-13.76 4.908-5.527 0 0z"
          ></path>
        </g>
        <g>
          <g transform="translate(128.872 297.626)">
            <path
              fill="#4fbcaf"
              fillOpacity="1"
              fillRule="nonzero"
              stroke="none"
              d="M0 0c-6.227-11.562 22.118-19.23 22.118-19.23s15.34 26.011 3.337 29.012C19.436 11.287 15.117-.555 15.117-.555S2.918 5.417 0 0"
            ></path>
          </g>
          <g transform="translate(128.872 297.626)">
            <path
              fill="none"
              stroke="#231f20"
              strokeDasharray="none"
              strokeLinecap="butt"
              strokeLinejoin="miter"
              strokeMiterlimit="10"
              strokeOpacity="1"
              strokeWidth="1"
              d="M0 0c-6.227-11.562 22.118-19.23 22.118-19.23s15.34 26.011 3.337 29.012C19.436 11.287 15.117-.555 15.117-.555S2.918 5.417 0 0z"
            ></path>
          </g>
        </g>
        <g transform="translate(245.407 268.32)">
          <path
            fill="#4fbcaf"
            fillOpacity="1"
            fillRule="nonzero"
            stroke="none"
            d="M0 0c-7.857-2.355 1.278-18.264 1.278-18.264s18.267 4.713 14.289 11.341c-1.994 3.324-9.135.003-9.135.003S3.685 1.106 0 0"
          ></path>
        </g>
        <g transform="translate(245.407 268.32)">
          <path
            fill="none"
            stroke="#231f20"
            strokeDasharray="none"
            strokeLinecap="butt"
            strokeLinejoin="miter"
            strokeMiterlimit="10"
            strokeOpacity="1"
            strokeWidth="1"
            d="M0 0c-7.857-2.355 1.278-18.264 1.278-18.264s18.267 4.713 14.289 11.341c-1.994 3.324-9.135.003-9.135.003S3.685 1.106 0 0z"
          ></path>
        </g>
        <g transform="translate(257.146 309.204)">
          <path
            fill="#4fbcaf"
            fillOpacity="1"
            fillRule="nonzero"
            stroke="none"
            d="M0 0c-3.185-5.915 11.317-9.839 11.317-9.839S19.165 3.47 13.024 5.005c-3.081.77-5.29-5.289-5.29-5.289S1.495 2.772 0 0"
          ></path>
        </g>
        <g transform="translate(257.146 309.204)">
          <path
            fill="none"
            stroke="#231f20"
            strokeDasharray="none"
            strokeLinecap="butt"
            strokeLinejoin="miter"
            strokeMiterlimit="10"
            strokeOpacity="1"
            strokeWidth="1"
            d="M0 0c-3.185-5.915 11.317-9.839 11.317-9.839S19.165 3.47 13.024 5.005c-3.081.77-5.29-5.289-5.29-5.289S1.495 2.772 0 0z"
          ></path>
        </g>
      </g>
    </g>
  </g>
</svg>