<?xml version="1.0" encoding="UTF-8" standalone="no"?>
<svg
   xmlns:dc="http://purl.org/dc/elements/1.1/"
   xmlns:cc="http://creativecommons.org/ns#"
   xmlns:rdf="http://www.w3.org/1999/02/22-rdf-syntax-ns#"
   xmlns:svg="http://www.w3.org/2000/svg"
   xmlns="http://www.w3.org/2000/svg"
   viewBox="0 0 566.93335 566.93335"
   height="566.93335"
   width="566.93335"
   xml:space="preserve"
   id="svg2"
   version="1.1"><metadata
     id="metadata8"><rdf:RDF><cc:Work
         rdf:about=""><dc:format>image/svg+xml</dc:format><dc:type
           rdf:resource="http://purl.org/dc/dcmitype/StillImage" /></cc:Work></rdf:RDF></metadata><defs
     id="defs6"><clipPath
       id="clipPath18"
       clipPathUnits="userSpaceOnUse"><path
         id="path16"
         d="M 0,425.2 H 425.2 V 0 H 0 Z" /></clipPath></defs><g
     transform="matrix(1.3333333,0,0,-1.3333333,0,566.93333)"
     id="g10"><g
       id="g12"><g
         clip-path="url(#clipPath18)"
         id="g14"><g
           transform="translate(104.3374,209.5674)"
           id="g20"><path
             id="path22"
             style="fill:#59c7b7;fill-opacity:1;fill-rule:evenodd;stroke:none"
             d="m 0,0 c -0.555,1.527 0.156,3.9 0.156,3.9 0,0 -2.015,-0.119 -3.208,1.039 -1.348,1.308 -1.523,3.119 0.475,4.678 0.849,0.662 2.029,0.746 2.445,0.895 3.936,0.599 7.663,-0.808 7.663,-0.808 0,0 0.173,-2.646 -0.194,-5.513 C 7.126,2.542 7.043,1.694 6.233,0.314 5.585,-0.786 3.843,-2.166 2.46,-1.979 1.39,-1.832 0.394,-1.083 0,0 m 3.96,-5.229 c 8.993,5.122 18.815,14.921 26.15,21.808 0.104,0.099 15.049,13.218 24.67,18.986 1.34,0.805 3.723,1.849 3.121,3.388 l -3.534,5.792 c 0,-0.003 -0.003,-0.006 -0.009,-0.006 -0.03,0.053 -0.06,0.114 -0.089,0.167 L 53.83,45.628 C 52.858,46.272 51.482,45.557 50.676,44.994 40.149,37.639 27.474,28.878 23.271,26.75 16.444,23.287 -0.272,16.115 -5.909,11.374 -10.065,7.881 -11.944,3.7 -9,-0.789 c 2.738,-4.182 6.205,-8.285 12.96,-4.44" /></g><g
           transform="translate(104.3374,209.5674)"
           id="g24"><path
             id="path26"
             style="fill:none;stroke:#4a2d32;stroke-width:1;stroke-linecap:butt;stroke-linejoin:miter;stroke-miterlimit:10;stroke-dasharray:none;stroke-opacity:1"
             d="m 0,0 c -0.555,1.527 0.156,3.9 0.156,3.9 0,0 -2.015,-0.119 -3.208,1.039 -1.348,1.308 -1.523,3.119 0.475,4.678 0.849,0.662 2.029,0.746 2.445,0.895 3.936,0.599 7.663,-0.808 7.663,-0.808 0,0 0.173,-2.646 -0.194,-5.513 C 7.126,2.542 7.043,1.694 6.233,0.314 5.585,-0.786 3.843,-2.166 2.46,-1.979 1.39,-1.832 0.394,-1.083 0,0 Z m 3.96,-5.229 c 8.993,5.122 18.815,14.921 26.15,21.808 0.104,0.099 15.049,13.218 24.67,18.986 1.34,0.805 3.723,1.849 3.121,3.388 l -3.534,5.792 c 0,-0.003 -0.003,-0.006 -0.009,-0.006 -0.03,0.053 -0.06,0.114 -0.089,0.167 L 53.83,45.628 C 52.858,46.272 51.482,45.557 50.676,44.994 40.149,37.639 27.474,28.878 23.271,26.75 16.444,23.287 -0.272,16.115 -5.909,11.374 -10.065,7.881 -11.944,3.7 -9,-0.789 c 2.738,-4.182 6.205,-8.285 12.96,-4.44 z" /></g><g
           transform="translate(128.8721,297.626)"
           id="g28"><path
             id="path30"
             style="fill:#4fbcaf;fill-opacity:1;fill-rule:nonzero;stroke:none"
             d="m 0,0 c -6.227,-11.562 22.118,-19.23 22.118,-19.23 0,0 15.34,26.011 3.337,29.012 C 19.436,11.287 15.117,-0.555 15.117,-0.555 15.117,-0.555 2.918,5.417 0,0" /></g><g
           transform="translate(128.8721,297.626)"
           id="g32"><path
             id="path34"
             style="fill:none;stroke:#231f20;stroke-width:1;stroke-linecap:butt;stroke-linejoin:miter;stroke-miterlimit:10;stroke-dasharray:none;stroke-opacity:1"
             d="m 0,0 c -6.227,-11.562 22.118,-19.23 22.118,-19.23 0,0 15.34,26.011 3.337,29.012 C 19.436,11.287 15.117,-0.555 15.117,-0.555 15.117,-0.555 2.918,5.417 0,0 Z" /></g><g
           transform="translate(189.3125,265.894)"
           id="g36"><path
             id="path38"
             style="fill:#4a2d32;fill-opacity:1;fill-rule:evenodd;stroke:none"
             d="m 0,0 c 12.504,5.118 24.834,10.583 35.594,18.992 5.616,4.383 8.292,8.142 10.23,14.683 2.865,-2.81 2.98,-4.29 0.428,-7.463 C 41.295,20.037 34.924,15.569 28.309,11.39 16.417,3.873 3.488,-1.466 -9.478,-6.766 -15.118,-9.073 -20.614,-11.75 -26.177,-14.258 -17.941,-8.602 -9.25,-3.786 0,0 M 14.427,34.504 C -0.372,20.473 -10.465,2.19 -26.784,-10.493 -13.197,4.62 -2.201,22.123 14.427,34.504 M -2.227,24.867 c 4.989,6.217 10.667,11.821 17.351,16.256 2.207,1.466 4.681,2.58 7.142,3.606 1.313,0.55 2.846,0.575 4.334,0.598 C 7.072,35.514 -5.723,18.591 -18.42,1.741 c -4.349,-5.522 -7.587,-9.721 -9.092,-10.982 5.255,8.096 19.442,26.832 25.285,34.108 m 37.348,14.19 C 18.061,32.539 6.432,19.446 -5.553,6.766 -9.636,2.444 -13.945,-1.871 -18.51,-5.684 c -1.303,-1.086 -5.489,-4.007 -7.059,-5.15 0.491,0.595 3.24,2.921 3.361,3.022 9.234,7.788 16.464,17.39 24.135,26.598 7.046,8.455 14.525,16.494 23.694,22.759 0.279,0.19 0.544,0.393 0.823,0.576 4.381,2.834 6.487,2.129 8.677,-3.064 M -11.356,-1.579 c -0.703,-0.293 -3.281,-2.125 -4.005,-2.39 10.507,9.833 23.797,22.863 34.645,32.304 4.005,3.487 9.262,5.603 14.104,8.038 2.548,1.281 3.575,0.47 2.868,-2.357 C 35.588,31.331 34.643,28.3 32.808,26.405 28.811,22.285 24.558,18.164 19.71,15.179 11.451,10.094 2.66,5.88 -5.915,1.312 -7.835,0.288 -9.424,-0.581 -11.356,-1.579 m 51.063,38.797 c 3.154,0.175 4.876,-1.575 3.789,-4.493 C 42.361,29.67 40.764,26.54 38.575,24.173 32.298,17.377 24.303,12.833 16.105,8.776 6.656,4.105 -2.997,-0.16 -12.483,-4.77 c -3.423,-1.667 -6.607,-3.822 -9.903,-5.754 -0.593,-0.372 -3.349,-1.719 -3.349,-1.719 3.787,2.737 10.529,7.416 14.547,9.512 8.158,4.261 16.707,7.817 24.667,12.401 6.341,3.645 12.294,8.091 17.958,12.74 4.043,3.318 6.941,7.732 6.726,13.481 -0.021,0.442 0.983,1.295 1.544,1.327 m -5.044,6.632 c 3.347,0.216 5.795,-1.428 7.401,-4.816 -3.996,-0.936 -5.901,1.438 -7.401,4.816 m 11.281,-0.083 c 2.919,-2.962 4.924,-6.28 3.422,-11.481 -2.116,3.042 -3.619,5.627 -5.541,7.859 -2,2.324 -4.393,4.31 -6.561,6.392 2.966,0.416 6.118,-0.167 8.68,-2.77 M 44.414,18.361 C 38.636,11.972 31.188,7.89 23.669,3.98 12.78,-1.677 1.223,-5.67 -10.398,-9.496 c -0.226,-0.077 -7.384,-2.754 -8.226,-2.804 1.216,0.502 9.786,4.053 11.003,4.544 1.246,0.501 2.488,1.006 3.747,1.466 10.404,3.794 20.575,8.102 30.144,13.728 8.105,4.767 15.777,10.098 21.695,17.604 0.207,-0.145 0.416,-0.29 0.626,-0.434 -1.377,-2.095 -2.518,-4.409 -4.177,-6.247 M -27.395,-17.43 c 0.065,0.068 0.157,0.149 0.272,0.227 0.289,0.212 0.696,0.425 0.99,0.53 3.313,1.194 6.651,2.322 9.973,3.49 11.856,4.162 23.844,7.996 35.519,12.608 9.377,3.705 18.149,8.756 25.34,16.054 3.608,3.665 6.418,7.794 5.881,13.349 -0.044,0.472 0.157,0.99 0.321,1.458 2.025,5.578 0.74,10.437 -3.409,14.501 -4.055,3.979 -8.879,4.215 -14.035,2.494 C 32.305,46.896 30.939,46.494 29.818,46.75 25.285,47.79 21.149,46.733 17.189,44.701 10.289,41.162 4.8,35.864 -0.455,30.293 -9.785,20.408 -16.633,8.714 -24.253,-2.417 c -2.105,-3.065 -4.287,-6.083 -6.435,-9.117 -0.063,-0.09 -0.124,-0.177 -0.187,-0.264 z" /></g><g
           transform="translate(236.1436,322.2705)"
           id="g40"><path
             id="path42"
             style="fill:#f14670;fill-opacity:1;fill-rule:evenodd;stroke:none"
             d="m 0,0 c -3.539,3.982 -8.077,5.539 -13.362,4.957 -0.587,-0.066 -1.244,-0.403 -1.563,0.548 -0.88,2.614 -2.632,4.62 -4.801,6.216 -5.782,4.253 -12.337,5.635 -19.385,4.846 -0.696,-0.079 -1.555,-0.589 -1.934,-1.165 -0.538,-0.815 0.196,-1.489 0.807,-2.091 2.563,-2.521 2.582,-5.625 0.048,-8.109 -0.586,-0.573 -1.249,-1.078 -1.931,-1.537 -2.621,-1.765 -5.387,-3.342 -7.871,-5.278 -4.9,-3.815 -8.812,-10.068 -5.106,-17.872 -2.53,-2.34 -3.511,-5.339 -2.958,-8.69 0.3,-1.803 0.982,-3.605 1.811,-5.244 2.904,-5.738 9.328,-8.795 15.682,-7.508 0.46,0.093 0.83,0.093 1.164,0.012 0.383,0.262 0.84,0.443 1.381,0.513 0.086,0.059 0.172,0.12 0.268,0.175 0.383,0.223 0.76,0.359 1.125,0.427 l 4.776,2.786 c 0.019,-0.02 1.699,1.371 1.68,1.392 1.593,1.636 4.927,4.725 4.993,4.623 0.038,0.091 7.835,9.321 8.036,9.736 2.077,4.225 7.529,4.074 7.578,4.064 -0.014,0.044 6.239,0.052 7.787,-2.754 0.208,-0.069 0.774,-0.814 0.885,-0.897 0.007,-0.005 0.012,-0.008 0.019,-0.012 0.103,-0.037 0.209,-0.079 0.313,-0.127 -0.066,0.554 0.077,1.04 0.579,1.62 C 4.905,-13.76 4.908,-5.527 0,0" /></g><g
           transform="translate(236.1436,322.2705)"
           id="g44"><path
             id="path46"
             style="fill:none;stroke:#472d30;stroke-width:1;stroke-linecap:butt;stroke-linejoin:miter;stroke-miterlimit:10;stroke-dasharray:none;stroke-opacity:1"
             d="m 0,0 c -3.539,3.982 -8.077,5.539 -13.362,4.957 -0.587,-0.066 -1.244,-0.403 -1.563,0.548 -0.88,2.614 -2.632,4.62 -4.801,6.216 -5.782,4.253 -12.337,5.635 -19.385,4.846 -0.696,-0.079 -1.555,-0.589 -1.934,-1.165 -0.538,-0.815 0.196,-1.489 0.807,-2.091 2.563,-2.521 2.582,-5.625 0.048,-8.109 -0.586,-0.573 -1.249,-1.078 -1.931,-1.537 -2.621,-1.765 -5.387,-3.342 -7.871,-5.278 -4.9,-3.815 -8.812,-10.068 -5.106,-17.872 -2.53,-2.34 -3.511,-5.339 -2.958,-8.69 0.3,-1.803 0.982,-3.605 1.811,-5.244 2.904,-5.738 9.328,-8.795 15.682,-7.508 0.46,0.093 0.83,0.093 1.164,0.012 0.383,0.262 0.84,0.443 1.381,0.513 0.086,0.059 0.172,0.12 0.268,0.175 0.383,0.223 0.76,0.359 1.125,0.427 l 4.776,2.786 c 0.019,-0.02 1.699,1.371 1.68,1.392 1.593,1.636 4.927,4.725 4.993,4.623 0.038,0.091 7.835,9.321 8.036,9.736 2.077,4.225 7.529,4.074 7.578,4.064 -0.014,0.044 6.239,0.052 7.787,-2.754 0.208,-0.069 0.774,-0.814 0.885,-0.897 0.007,-0.005 0.012,-0.008 0.019,-0.012 0.103,-0.037 0.209,-0.079 0.313,-0.127 -0.066,0.554 0.077,1.04 0.579,1.62 C 4.905,-13.76 4.908,-5.527 0,0 Z" /></g><g
           transform="translate(42.3779,142.4248)"
           id="g48"><path
             id="path50"
             style="fill:#f14670;fill-opacity:1;fill-rule:nonzero;stroke:none"
             d="m 0,0 c 0,-1.629 0.394,-2.788 1.185,-3.479 0.789,-0.692 2.099,-1.037 3.929,-1.037 3.991,0 7.275,3.253 9.854,9.764 -2.495,0.895 -4.824,1.383 -6.985,1.465 H 7.733 C 5.239,6.713 3.284,6.021 1.871,4.638 0.624,3.417 0,1.871 0,0 m 73.467,-1.587 v -0.244 c 0.082,-0.244 0.082,-0.488 0,-0.732 -0.084,-0.083 -0.125,-0.165 -0.125,-0.245 L 73.218,-2.93 c 0,-0.081 -0.043,-0.122 -0.125,-0.122 -4.658,-5.206 -10.686,-7.81 -18.086,-7.81 -3.243,0 -6.632,0.549 -10.166,1.647 -3.535,1.099 -6.342,2.197 -8.419,3.295 -2.08,1.099 -4.989,2.705 -8.732,4.821 -2.662,1.545 -4.658,2.686 -5.987,3.418 -3.91,-6.346 -9.273,-9.6 -16.09,-9.764 H 5.114 c -3.161,0 -5.301,0.754 -6.424,2.258 -1.123,1.504 -1.684,3.234 -1.684,5.187 0,2.685 0.914,4.922 2.744,6.713 2.078,1.952 4.822,2.887 8.233,2.807 2.826,0 5.57,-0.205 8.232,-0.611 2.744,9.032 4.116,21.562 4.116,37.592 0,28.315 -4.533,42.675 -13.596,43.083 H 6.236 c -4.989,0 -8.774,-2.563 -11.35,-7.688 -2.662,-5.697 -3.701,-12.633 -3.118,-20.81 0.58,-8.178 2.369,-14.139 5.363,-17.881 0.581,-0.731 0.477,-1.403 -0.312,-2.014 -0.791,-0.61 -1.477,-0.548 -2.058,0.184 -3.243,4.149 -5.219,10.598 -5.925,19.345 -0.707,8.745 0.394,16.211 3.306,22.396 3.159,6.264 7.858,9.398 14.094,9.398 3.824,0 7.173,-0.998 10.041,-2.991 2.869,-1.994 5.28,-4.942 7.235,-8.848 1.953,-3.906 3.408,-8.748 4.365,-14.525 0.956,-5.777 1.435,-12.49 1.435,-20.137 0,-15.786 -1.415,-27.869 -4.241,-36.249 -0.333,-0.977 -0.667,-1.912 -0.998,-2.807 2.495,-0.896 5.904,-2.401 10.228,-4.516 3.243,-1.546 5.779,-2.706 7.609,-3.478 1.828,-0.775 4.406,-1.547 7.734,-2.319 3.324,-0.775 6.776,-1.16 10.352,-1.16 4.323,0 7.858,1.057 10.602,3.173 l 0.499,0.366 0.125,0.123 0.125,0.122 h 0.249 c 0.082,0 0.144,0.019 0.187,0.061 0.041,0.04 0.082,0.061 0.125,0.061 h 0.187 0.125 c 0.082,-0.082 0.206,-0.122 0.374,-0.122 l 0.125,-0.122 h 0.125 l 0.124,-0.123 c 0.25,-0.164 0.415,-0.366 0.499,-0.61" /></g><g
           transform="translate(114.5972,169.0312)"
           id="g52"><path
             id="path54"
             style="fill:#f14670;fill-opacity:1;fill-rule:nonzero;stroke:none"
             d="m 0,0 c 0.25,3.824 0.749,7.445 1.497,10.862 -0.168,0.325 -0.333,0.611 -0.499,0.855 -0.249,0.324 -0.542,0.65 -0.873,0.976 -0.667,0.325 -1.54,0.367 -2.62,0.122 -3.243,-0.896 -6.423,-3.6 -9.542,-8.116 -3.118,-4.515 -4.677,-9.501 -4.677,-14.951 0,-2.849 0.437,-5.064 1.31,-6.651 0.873,-1.587 1.765,-2.38 2.681,-2.38 1.248,0 2.577,0.671 3.992,2.013 1.413,1.343 2.619,2.949 3.617,4.822 v 0.121 c 1.497,2.603 3.118,6.469 4.864,11.595 0,0.08 0.02,0.202 0.063,0.366 C -0.146,-0.204 -0.084,-0.082 0,0 M 31.433,4.028 32.742,3.296 C 33.615,2.808 33.803,2.155 33.304,1.343 L 32.431,-0.122 C 28.189,-7.2 24.738,-12.408 22.078,-15.744 c -0.084,-0.082 -0.125,-0.164 -0.125,-0.244 l -0.249,-0.122 c 0,-0.082 -0.043,-0.122 -0.125,-0.122 -4.159,-5.046 -7.858,-7.568 -11.101,-7.568 -2.994,0 -5.407,1.221 -7.235,3.662 -1.83,2.521 -2.952,6.305 -3.368,11.351 -0.748,-1.873 -1.54,-3.581 -2.37,-5.126 -3.66,-6.591 -7.983,-9.887 -12.972,-9.887 -2.827,0 -5.301,1.179 -7.421,3.54 -2.121,2.359 -3.181,6.021 -3.181,10.985 0,6.59 2.267,12.651 6.798,18.185 4.531,5.532 9.125,8.299 13.783,8.299 3.243,0 5.738,-0.773 7.484,-2.318 0.166,-0.082 0.331,-0.204 0.499,-0.367 H 2.62 c 0.165,0.733 0.602,1.322 1.309,1.77 0.706,0.446 1.454,0.711 2.245,0.793 0.79,0.08 1.559,0.04 2.308,-0.122 1.164,-0.326 2.058,-0.976 2.682,-1.952 0.623,-0.977 0.727,-2.158 0.312,-3.54 C 10.643,8.3 9.979,4.883 9.479,1.221 8.981,-2.44 8.856,-6.062 9.105,-9.642 c 0.25,-3.581 0.999,-6.144 2.246,-7.689 0.914,-1.058 2.036,-1.546 3.367,-1.464 0.749,0.244 2.327,1.748 4.74,4.516 l 0.125,0.244 h 0.125 c 2.576,3.173 5.944,8.299 10.103,15.378 l 0.873,1.465 c 0.499,0.812 0.749,1.22 0.749,1.22" /></g><g
           transform="translate(216.751,225.5405)"
           id="g56"><path
             id="path58"
             style="fill:#f14670;fill-opacity:1;fill-rule:nonzero;stroke:none"
             d="m 0,0 c -3.577,-4.558 -6.633,-10.66 -9.168,-18.307 -2.538,-7.65 -3.93,-14.485 -4.179,-20.504 1.578,0.487 3.181,1.178 4.802,2.074 1.622,0.895 3.243,1.953 4.865,3.174 1.621,1.22 3.181,2.582 4.677,4.088 1.497,1.505 2.889,3.174 4.179,5.004 1.288,1.831 2.411,3.722 3.368,5.676 0.955,1.953 1.703,4.067 2.245,6.346 0.54,2.277 0.811,4.596 0.811,6.957 C 11.6,1.343 10.06,4.76 6.984,4.76 4.905,4.76 2.619,3.253 0.124,0.244 0.04,0.162 0,0.08 0,0 m 9.854,9.276 c 1.828,0 3.429,-0.265 4.801,-0.794 1.372,-0.53 2.474,-1.262 3.306,-2.196 0.83,-0.937 1.538,-1.892 2.12,-2.869 0.581,-0.976 0.998,-2.055 1.248,-3.234 0.249,-1.181 0.415,-2.157 0.499,-2.929 0.081,-0.775 0.124,-1.525 0.124,-2.258 0,-5.452 -1.726,-10.923 -5.176,-16.415 -3.452,-5.494 -7.921,-10.13 -13.409,-13.914 -5.488,-3.784 -11.1,-6.042 -16.839,-6.774 0,-6.102 -0.146,-12.43 -0.436,-18.978 -0.293,-6.551 -0.561,-11.637 -0.811,-15.257 -0.249,-3.621 -0.417,-5.757 -0.499,-6.408 v -0.366 c -0.167,-1.14 -0.333,-2.035 -0.499,-2.685 -0.167,-0.652 -0.395,-1.404 -0.686,-2.258 -0.292,-0.855 -0.729,-1.483 -1.309,-1.892 -0.583,-0.406 -1.331,-0.61 -2.246,-0.61 -1.247,0 -2.245,0.448 -2.993,1.343 -1.166,1.22 -1.54,3.417 -1.123,6.591 0.25,2.277 0.643,8.135 1.185,17.575 0.54,9.437 0.893,20.523 1.06,33.259 0.166,12.732 -0.458,22.475 -1.871,29.23 -0.249,1.465 -0.666,2.725 -1.247,3.784 -0.583,1.056 -1.29,1.87 -2.12,2.441 -0.832,0.568 -1.705,0.854 -2.62,0.854 -3.243,0 -6.133,-1.099 -8.668,-3.295 -2.538,-2.198 -4.388,-5.248 -5.551,-9.154 v -0.122 c -1.247,-5.941 -1.31,-11.983 -0.187,-18.125 1.122,-6.145 2.888,-10.721 5.301,-13.731 0.581,-0.731 0.477,-1.403 -0.312,-2.013 -0.792,-0.611 -1.478,-0.549 -2.058,0.183 -1.996,2.521 -3.639,6.121 -4.927,10.801 -1.29,4.678 -1.871,9.783 -1.746,15.318 0.125,5.532 1.185,10.332 3.18,14.402 3.575,7.078 9.437,10.618 17.588,10.618 2.66,0 4.989,-1.019 6.984,-3.051 1.997,-2.035 3.369,-4.802 4.117,-8.3 1.079,-5.208 1.828,-12.409 2.245,-21.602 1.247,4.718 2.744,9.071 4.491,13.059 1.995,4.718 4.116,8.665 6.361,11.839 3.991,5.288 8.232,7.933 12.723,7.933" /></g><g
           transform="translate(239.9492,180.748)"
           id="g60"><path
             id="path62"
             style="fill:#f14670;fill-opacity:1;fill-rule:nonzero;stroke:none"
             d="m 0,0 c -3.492,-2.36 -5.862,-6.916 -7.109,-13.669 2.994,1.626 5.591,3.579 7.796,5.858 2.202,2.277 3.346,4.556 3.429,6.834 C 4.116,0 3.742,0.61 2.994,0.854 2.246,1.099 1.248,0.812 0,0 m 24.448,-8.482 c 0.83,-0.531 0.998,-1.202 0.499,-2.014 -1.914,-2.849 -3.493,-5.107 -4.74,-6.774 -1.247,-1.668 -2.952,-3.844 -5.114,-6.53 -2.163,-2.684 -4.303,-4.902 -6.424,-6.651 -2.12,-1.751 -4.221,-3.072 -6.299,-3.967 -0.167,-0.082 -0.333,-0.164 -0.499,-0.244 -1.58,-0.57 -3.118,-0.855 -4.614,-0.855 -3.577,0 -6.923,1.627 -10.041,4.883 -3.119,3.253 -4.678,7.811 -4.678,13.669 0,6.997 1.684,12.489 5.052,16.477 3.367,3.986 7.297,5.98 11.787,5.98 C 1.454,5.492 3.2,5.004 4.615,4.028 6.278,2.888 7.11,1.261 7.11,-0.854 V -0.977 C 7.026,-4.313 5.467,-7.426 2.433,-10.313 -0.604,-13.202 -3.95,-15.5 -7.608,-17.209 c -0.084,-1.302 -0.125,-2.685 -0.125,-4.149 0,-4.558 1.08,-7.65 3.243,-9.276 1.579,-1.22 3.45,-1.629 5.613,-1.22 1.497,0.65 3.118,1.687 4.864,3.112 1.746,1.423 3.284,2.846 4.616,4.271 1.329,1.423 2.847,3.254 4.552,5.492 1.703,2.238 2.994,3.967 3.867,5.188 0.874,1.221 2.015,2.847 3.43,4.882 0.499,0.812 1.164,0.955 1.996,0.427" /></g><g
           transform="translate(353.0811,204.0596)"
           id="g64"><path
             id="path66"
             style="fill:#f14670;fill-opacity:1;fill-rule:nonzero;stroke:none"
             d="m 0,0 c 0.415,-0.814 0.165,-1.445 -0.749,-1.892 -0.916,-0.448 -1.58,-0.225 -1.995,0.671 -1.248,2.522 -3.848,4.516 -7.796,5.981 -3.951,1.465 -8.005,2.197 -12.162,2.197 -3.909,0 -7.92,-0.326 -12.036,-0.977 -4.116,-0.652 -7.403,-1.302 -9.854,-1.953 -2.454,-0.652 -5.76,-1.628 -9.917,-2.928 -10.56,-3.173 -19.002,-5.004 -25.32,-5.493 -1.664,-8.219 -2.495,-17.046 -2.495,-26.484 0,-2.93 0.082,-5.676 0.25,-8.238 0.166,-2.564 0.415,-4.822 0.748,-6.775 0.332,-1.952 0.686,-3.764 1.06,-5.43 0.374,-1.669 0.789,-3.094 1.247,-4.273 0.456,-1.179 0.915,-2.238 1.373,-3.173 0.456,-0.936 0.914,-1.689 1.372,-2.257 0.456,-0.571 0.873,-1.038 1.247,-1.404 0.375,-0.366 0.706,-0.632 0.998,-0.794 0.291,-0.164 0.518,-0.244 0.686,-0.244 0.83,0 1.912,1.749 3.243,5.248 0.748,1.953 1.829,5.288 3.243,10.009 2.162,7.402 3.949,12.65 5.364,15.744 0.415,0.895 1.059,1.159 1.932,0.793 0.874,-0.366 1.143,-0.997 0.812,-1.891 -1.415,-3.011 -3.161,-8.137 -5.239,-15.378 -1.415,-4.72 -2.453,-8.056 -3.118,-10.009 v -0.121 h -0.125 c -2.413,-6.755 -5.198,-10.131 -8.357,-10.131 -4.241,0 -7.942,3.314 -11.101,9.947 -3.162,6.631 -4.741,15.684 -4.741,27.156 0,9.682 0.874,18.876 2.62,27.583 -6.568,0.569 -11.974,3.213 -16.215,7.934 -0.664,0.732 -0.623,1.422 0.125,2.074 0.748,0.651 1.456,0.611 2.12,-0.121 3.826,-4.232 8.649,-6.592 14.469,-7.08 2.661,12.124 6.486,22.05 11.475,29.781 0.749,1.22 1.704,2.053 2.869,2.502 1.164,0.446 2.245,0.385 3.243,-0.183 0.914,-0.489 1.497,-1.282 1.746,-2.38 0.25,-1.099 0,-2.624 -0.748,-4.577 -0.25,-0.408 -0.624,-1.141 -1.123,-2.197 -3.825,-7.731 -6.61,-15.298 -8.356,-22.702 5.819,0.488 13.761,2.277 23.823,5.371 4.323,1.301 7.712,2.277 10.166,2.929 2.452,0.65 5.8,1.322 10.041,2.014 4.241,0.69 8.398,1.037 12.473,1.037 4.74,0 9.334,-0.875 13.783,-2.624 C -4.472,5.512 -1.497,3.092 0,0" /></g><g
           transform="translate(341.9785,172.5713)"
           id="g68"><path
             id="path70"
             style="fill:#f14670;fill-opacity:1;fill-rule:nonzero;stroke:none"
             d="M 0,0 C 0.415,0 0.768,-0.144 1.06,-0.428 1.351,-0.714 1.496,-1.059 1.496,-1.465 1.496,-1.873 1.351,-2.218 1.06,-2.502 0.768,-2.788 0.415,-2.93 0,-2.93 h -4.491 -0.997 -2.059 -2.245 -1.684 -0.125 c -1.331,0 -2.578,0.162 -3.742,0.489 -1.165,0.324 -2.1,0.69 -2.805,1.098 -0.708,0.406 -1.415,0.995 -2.122,1.77 -0.707,0.772 -1.206,1.383 -1.497,1.831 -0.292,0.446 -0.685,1.117 -1.184,2.013 -0.748,1.301 -1.372,2.198 -1.871,2.686 -0.499,0.487 -1.165,0.731 -1.995,0.731 -2.329,0 -4.866,-3.214 -7.61,-9.641 v -0.122 c -2.412,-6.347 -4.116,-14.117 -5.113,-23.312 v -0.122 c -0.084,-0.814 -0.499,-1.385 -1.248,-1.709 -0.417,-0.163 -0.873,-0.244 -1.372,-0.244 -1.247,0 -2.537,0.428 -3.866,1.282 -1.331,0.855 -2.329,1.892 -2.995,3.113 -1.995,4.149 -3.118,9.865 -3.367,17.147 -0.25,7.281 0.374,12.917 1.871,16.904 0.331,1.057 1.101,1.81 2.308,2.258 1.204,0.446 2.389,0.507 3.555,0.183 0.748,-0.244 1.391,-0.591 1.932,-1.037 0.54,-0.449 0.936,-1.059 1.186,-1.831 0.249,-0.774 0.249,-1.648 0,-2.624 -2.245,-9.114 -2.288,-17.902 -0.125,-26.363 1.08,6.671 2.577,12.45 4.49,17.331 0,0.08 0.041,0.203 0.125,0.367 1.912,4.717 4.073,8.298 6.486,10.74 2.411,2.441 4.865,3.661 7.36,3.661 1.746,0 3.304,-0.244 4.677,-0.731 1.372,-0.489 2.577,-1.263 3.617,-2.32 1.039,-1.058 1.828,-1.953 2.37,-2.685 0.54,-0.733 1.185,-1.79 1.933,-3.173 C -9.522,3.051 -8.628,1.83 -7.921,1.099 -7.216,0.366 -6.404,0 -5.488,0 Z" /></g><g
           transform="translate(362.8076,169.0312)"
           id="g72"><path
             id="path74"
             style="fill:#f14670;fill-opacity:1;fill-rule:nonzero;stroke:none"
             d="m 0,0 c 0.249,3.824 0.748,7.445 1.496,10.862 -0.167,0.325 -0.333,0.611 -0.499,0.855 -0.249,0.324 -0.541,0.65 -0.873,0.976 -0.666,0.325 -1.539,0.367 -2.619,0.122 -3.243,-0.896 -6.424,-3.6 -9.542,-8.116 -3.118,-4.515 -4.678,-9.501 -4.678,-14.951 0,-2.849 0.437,-5.064 1.31,-6.651 0.873,-1.587 1.766,-2.38 2.682,-2.38 1.247,0 2.577,0.671 3.992,2.013 1.413,1.343 2.619,2.949 3.617,4.822 v 0.121 c 1.497,2.603 3.118,6.469 4.864,11.595 0,0.08 0.02,0.202 0.063,0.366 C -0.146,-0.204 -0.084,-0.082 0,0 m 31.432,4.028 c 0,0 0.437,-0.244 1.31,-0.732 0.873,-0.488 1.06,-1.141 0.561,-1.953 L 32.43,-0.122 C 28.189,-7.2 24.737,-12.408 22.077,-15.744 c -0.084,-0.082 -0.125,-0.164 -0.125,-0.244 l -0.249,-0.122 c 0,-0.082 -0.043,-0.122 -0.125,-0.122 -4.159,-5.046 -7.858,-7.568 -11.1,-7.568 -2.995,0 -5.408,1.221 -7.236,3.662 -1.83,2.521 -2.952,6.305 -3.367,11.351 -0.749,-1.873 -1.54,-3.581 -2.37,-5.126 -3.66,-6.591 -7.983,-9.887 -12.972,-9.887 -2.828,0 -5.302,1.179 -7.422,3.54 -2.12,2.359 -3.18,6.021 -3.18,10.985 0,6.59 2.266,12.651 6.798,18.185 4.531,5.532 9.125,8.299 13.783,8.299 3.242,0 5.737,-0.773 7.483,-2.318 0.166,-0.082 0.331,-0.204 0.499,-0.367 h 0.125 c 0.165,0.733 0.602,1.322 1.31,1.77 0.705,0.446 1.454,0.711 2.245,0.793 0.789,0.08 1.559,0.04 2.307,-0.122 1.164,-0.326 2.058,-0.976 2.682,-1.952 0.624,-0.977 0.727,-2.158 0.312,-3.54 C 10.643,8.3 9.979,4.883 9.479,1.221 8.98,-2.44 8.855,-6.062 9.105,-9.642 c 0.249,-3.581 0.998,-6.144 2.246,-7.689 0.914,-1.058 2.036,-1.546 3.367,-1.464 0.749,0.244 2.327,1.748 4.74,4.516 l 0.125,0.244 h 0.124 c 2.577,3.173 5.944,8.299 10.104,15.378 l 0.873,1.465 c 0.499,0.812 0.748,1.22 0.748,1.22" /></g><g
           transform="translate(136.126,99.9971)"
           id="g76"><path
             id="path78"
             style="fill:#5ba58d;fill-opacity:1;fill-rule:nonzero;stroke:none"
             d="m 0,0 c 0.694,-0.127 1.704,-0.158 2.777,-0.158 5.869,0 9.056,3.281 9.056,9.024 0.032,5.018 -2.808,8.205 -8.614,8.205 -1.42,0 -2.493,-0.127 -3.219,-0.284 z m -2.745,18.807 c 1.672,0.252 3.66,0.441 5.837,0.441 3.945,0 6.753,-0.915 8.615,-2.65 1.893,-1.736 2.998,-4.198 2.998,-7.637 0,-3.471 -1.073,-6.311 -3.061,-8.268 -1.988,-1.987 -5.27,-3.06 -9.404,-3.06 -1.956,0 -3.597,0.095 -4.985,0.253 z" /></g><g
           transform="translate(165.5298,108.3271)"
           id="g80"><path
             id="path82"
             style="fill:#5ba58d;fill-opacity:1;fill-rule:nonzero;stroke:none"
             d="m 0,0 c 0,-4.544 2.461,-8.614 6.784,-8.614 4.355,0 6.816,4.007 6.816,8.835 0,4.228 -2.209,8.646 -6.784,8.646 C 2.272,8.867 0,4.67 0,0 m 16.503,0.348 c 0,-7.322 -4.449,-11.202 -9.877,-11.202 -5.616,0 -9.561,4.354 -9.561,10.791 0,6.752 4.197,11.17 9.877,11.17 5.806,0 9.561,-4.449 9.561,-10.759" /></g><g
           transform="translate(209.9219,98.5137)"
           id="g84"><path
             id="path86"
             style="fill:#5ba58d;fill-opacity:1;fill-rule:nonzero;stroke:none"
             d="m 0,0 c -1.01,-0.505 -3.029,-1.01 -5.616,-1.01 -5.996,0 -10.508,3.786 -10.508,10.76 0,6.658 4.512,11.171 11.107,11.171 2.651,0 4.324,-0.568 5.049,-0.946 l -0.663,-2.242 c -1.041,0.506 -2.524,0.884 -4.291,0.884 -4.986,0 -8.299,-3.186 -8.299,-8.772 0,-5.206 2.997,-8.551 8.172,-8.551 1.673,0 3.377,0.347 4.482,0.883 z" /></g><g
           transform="translate(233.8359,107.791)"
           id="g88"><path
             id="path90"
             style="fill:#5ba58d;fill-opacity:1;fill-rule:nonzero;stroke:none"
             d="M 0,0 H -8.268 V -7.668 H 0.946 V -9.972 H -11.013 V 11.297 H 0.473 V 8.993 H -8.268 V 2.271 l 8.268,0 z" /></g><g
           transform="translate(250.5557,109.1162)"
           id="g92"><path
             id="path94"
             style="fill:#5ba58d;fill-opacity:1;fill-rule:nonzero;stroke:none"
             d="m 0,0 h 2.809 c 2.934,0 4.795,1.609 4.795,4.039 0,2.745 -1.987,3.944 -4.89,3.976 C 1.389,8.015 0.441,7.889 0,7.763 Z m -2.745,9.688 c 1.389,0.284 3.376,0.441 5.269,0.441 2.935,0 4.829,-0.536 6.154,-1.735 1.073,-0.947 1.672,-2.399 1.672,-4.04 0,-2.808 -1.767,-4.669 -4.007,-5.427 v -0.095 c 1.64,-0.567 2.619,-2.082 3.124,-4.291 0.694,-2.967 1.199,-5.018 1.64,-5.838 H 8.268 c -0.348,0.6 -0.821,2.43 -1.42,5.08 -0.632,2.935 -1.768,4.039 -4.26,4.134 H 0 v -9.214 h -2.745 z" /></g><path
           id="path96"
           style="fill:#5ba58d;fill-opacity:1;fill-rule:nonzero;stroke:none"
           d="m 276.994,97.819 h -2.745 v 21.269 h 2.745 z" /><g
           transform="translate(301.668,106.6553)"
           id="g98"><path
             id="path100"
             style="fill:#5ba58d;fill-opacity:1;fill-rule:nonzero;stroke:none"
             d="m 0,0 -2.083,6.121 c -0.473,1.389 -0.789,2.65 -1.105,3.882 H -3.25 C -3.565,8.74 -3.913,7.446 -4.323,6.152 L -6.406,0 Z m -6.974,-2.146 -2.209,-6.69 h -2.839 l 7.225,21.269 h 3.314 L 5.774,-8.836 H 2.84 l -2.272,6.69 z" /></g><g
           transform="translate(245.4072,268.3203)"
           id="g102"><path
             id="path104"
             style="fill:#4fbcaf;fill-opacity:1;fill-rule:nonzero;stroke:none"
             d="m 0,0 c -7.857,-2.355 1.278,-18.264 1.278,-18.264 0,0 18.267,4.713 14.289,11.341 -1.994,3.324 -9.135,0.003 -9.135,0.003 0,0 -2.747,8.026 -6.432,6.92" /></g><g
           transform="translate(245.4072,268.3203)"
           id="g106"><path
             id="path108"
             style="fill:none;stroke:#231f20;stroke-width:1;stroke-linecap:butt;stroke-linejoin:miter;stroke-miterlimit:10;stroke-dasharray:none;stroke-opacity:1"
             d="m 0,0 c -7.857,-2.355 1.278,-18.264 1.278,-18.264 0,0 18.267,4.713 14.289,11.341 -1.994,3.324 -9.135,0.003 -9.135,0.003 0,0 -2.747,8.026 -6.432,6.92 z" /></g><g
           transform="translate(257.1455,309.2041)"
           id="g110"><path
             id="path112"
             style="fill:#4fbcaf;fill-opacity:1;fill-rule:nonzero;stroke:none"
             d="m 0,0 c -3.185,-5.915 11.317,-9.839 11.317,-9.839 0,0 7.848,13.309 1.707,14.844 -3.081,0.77 -5.29,-5.289 -5.29,-5.289 0,0 -6.239,3.056 -7.734,0.284" /></g><g
           transform="translate(257.1455,309.2041)"
           id="g114"><path
             id="path116"
             style="fill:none;stroke:#231f20;stroke-width:1;stroke-linecap:butt;stroke-linejoin:miter;stroke-miterlimit:10;stroke-dasharray:none;stroke-opacity:1"
             d="m 0,0 c -3.185,-5.915 11.317,-9.839 11.317,-9.839 0,0 7.848,13.309 1.707,14.844 -3.081,0.77 -5.29,-5.289 -5.29,-5.289 0,0 -6.239,3.056 -7.734,0.284 z" /></g></g></g></g></svg>