<svg
  xmlns="http://www.w3.org/2000/svg"
  width="566.933"
  height="566.933"
  version="1.1"
  viewBox="0 0 566.933 566.933"
  xmlSpace="preserve"
>
  <defs>
    <clipPath id="clipPath18" clipPathUnits="userSpaceOnUse">
      <path d="M0 425.2h425.2V0H0z"></path>
    </clipPath>
  </defs>
  <g transform="matrix(1.33333 0 0 -1.33333 0 566.933)">
    <g>
      <g clipPath="url(#clipPath18)">
        <g transform="translate(104.337 209.567)">
          <path
            fill="#59c7b7"
            fillOpacity="1"
            fillRule="evenodd"
            stroke="none"
            d="M0 0c-.555 1.527.156 3.9.156 3.9s-2.015-.119-3.208 1.039c-1.348 1.308-1.523 3.119.475 4.678.849.662 2.029.746 2.445.895 3.936.599 7.663-.808 7.663-.808s.173-2.646-.194-5.513C7.126 2.542 7.043 1.694 6.233.314c-.648-1.1-2.39-2.48-3.773-2.293A3.097 3.097 0 000 0m3.96-5.229C12.953-.107 22.775 9.692 30.11 16.579c.104.099 15.049 13.218 24.67 18.986 1.34.805 3.723 1.849 3.121 3.388l-3.534 5.792c0-.003-.003-.006-.009-.006-.03.053-.06.114-.089.167l-.439.722c-.972.644-2.348-.071-3.154-.634-10.527-7.355-23.202-16.116-27.405-18.244-6.827-3.463-23.543-10.635-29.18-15.376C-10.065 7.881-11.944 3.7-9-.789c2.738-4.182 6.205-8.285 12.96-4.44"
          ></path>
        </g>
        <g transform="translate(104.337 209.567)">
          <path
            fill="none"
            stroke="#4a2d32"
            strokeDasharray="none"
            strokeLinecap="butt"
            strokeLinejoin="miter"
            strokeMiterlimit="10"
            strokeOpacity="1"
            strokeWidth="1"
            d="M0 0c-.555 1.527.156 3.9.156 3.9s-2.015-.119-3.208 1.039c-1.348 1.308-1.523 3.119.475 4.678.849.662 2.029.746 2.445.895 3.936.599 7.663-.808 7.663-.808s.173-2.646-.194-5.513C7.126 2.542 7.043 1.694 6.233.314c-.648-1.1-2.39-2.48-3.773-2.293A3.097 3.097 0 000 0zm3.96-5.229C12.953-.107 22.775 9.692 30.11 16.579c.104.099 15.049 13.218 24.67 18.986 1.34.805 3.723 1.849 3.121 3.388l-3.534 5.792c0-.003-.003-.006-.009-.006-.03.053-.06.114-.089.167l-.439.722c-.972.644-2.348-.071-3.154-.634-10.527-7.355-23.202-16.116-27.405-18.244-6.827-3.463-23.543-10.635-29.18-15.376C-10.065 7.881-11.944 3.7-9-.789c2.738-4.182 6.205-8.285 12.96-4.44z"
          ></path>
        </g>
        <g transform="translate(128.872 297.626)">
          <path
            fill="#4fbcaf"
            fillOpacity="1"
            fillRule="nonzero"
            stroke="none"
            d="M0 0c-6.227-11.562 22.118-19.23 22.118-19.23s15.34 26.011 3.337 29.012C19.436 11.287 15.117-.555 15.117-.555S2.918 5.417 0 0"
          ></path>
        </g>
        <g transform="translate(128.872 297.626)">
          <path
            fill="none"
            stroke="#231f20"
            strokeDasharray="none"
            strokeLinecap="butt"
            strokeLinejoin="miter"
            strokeMiterlimit="10"
            strokeOpacity="1"
            strokeWidth="1"
            d="M0 0c-6.227-11.562 22.118-19.23 22.118-19.23s15.34 26.011 3.337 29.012C19.436 11.287 15.117-.555 15.117-.555S2.918 5.417 0 0z"
          ></path>
        </g>
        <g transform="translate(189.313 265.894)">
          <path
            fill="#4a2d32"
            fillOpacity="1"
            fillRule="evenodd"
            stroke="none"
            d="M0 0c12.504 5.118 24.834 10.583 35.594 18.992 5.616 4.383 8.292 8.142 10.23 14.683 2.865-2.81 2.98-4.29.428-7.463-4.957-6.175-11.328-10.643-17.943-14.822C16.417 3.873 3.488-1.466-9.478-6.766c-5.64-2.307-11.136-4.984-16.699-7.492C-17.941-8.602-9.25-3.786 0 0m14.427 34.504C-.372 20.473-10.465 2.19-26.784-10.493-13.197 4.62-2.201 22.123 14.427 34.504m-16.654-9.637C2.762 31.084 8.44 36.688 15.124 41.123c2.207 1.466 4.681 2.58 7.142 3.606 1.313.55 2.846.575 4.334.598C7.072 35.514-5.723 18.591-18.42 1.741c-4.349-5.522-7.587-9.721-9.092-10.982C-22.257-1.145-8.07 17.591-2.227 24.867m37.348 14.19C18.061 32.539 6.432 19.446-5.553 6.766c-4.083-4.322-8.392-8.637-12.957-12.45-1.303-1.086-5.489-4.007-7.059-5.15.491.595 3.24 2.921 3.361 3.022C-12.974-.024-5.744 9.578 1.927 18.786c7.046 8.455 14.525 16.494 23.694 22.759.279.19.544.393.823.576 4.381 2.834 6.487 2.129 8.677-3.064M-11.356-1.579c-.703-.293-3.281-2.125-4.005-2.39C-4.854 5.864 8.436 18.894 19.284 28.335c4.005 3.487 9.262 5.603 14.104 8.038 2.548 1.281 3.575.47 2.868-2.357-.668-2.685-1.613-5.716-3.448-7.611-3.997-4.12-8.25-8.241-13.098-11.226C11.451 10.094 2.66 5.88-5.915 1.312-7.835.288-9.424-.581-11.356-1.579m51.063 38.797c3.154.175 4.876-1.575 3.789-4.493-1.135-3.055-2.732-6.185-4.921-8.552-6.277-6.796-14.272-11.34-22.47-15.397C6.656 4.105-2.997-.16-12.483-4.77c-3.423-1.667-6.607-3.822-9.903-5.754-.593-.372-3.349-1.719-3.349-1.719 3.787 2.737 10.529 7.416 14.547 9.512C-3.03 1.53 5.519 5.086 13.479 9.67c6.341 3.645 12.294 8.091 17.958 12.74 4.043 3.318 6.941 7.732 6.726 13.481-.021.442.983 1.295 1.544 1.327m-5.044 6.632c3.347.216 5.795-1.428 7.401-4.816-3.996-.936-5.901 1.438-7.401 4.816m11.281-.083c2.919-2.962 4.924-6.28 3.422-11.481-2.116 3.042-3.619 5.627-5.541 7.859-2 2.324-4.393 4.31-6.561 6.392 2.966.416 6.118-.167 8.68-2.77m-1.53-25.406C38.636 11.972 31.188 7.89 23.669 3.98 12.78-1.677 1.223-5.67-10.398-9.496c-.226-.077-7.384-2.754-8.226-2.804 1.216.502 9.786 4.053 11.003 4.544 1.246.501 2.488 1.006 3.747 1.466C6.53-2.496 16.701 1.812 26.27 7.438c8.105 4.767 15.777 10.098 21.695 17.604.207-.145.416-.29.626-.434-1.377-2.095-2.518-4.409-4.177-6.247M-27.395-17.43c.065.068.157.149.272.227.289.212.696.425.99.53 3.313 1.194 6.651 2.322 9.973 3.49C-4.304-9.021 7.684-5.187 19.359-.575c9.377 3.705 18.149 8.756 25.34 16.054 3.608 3.665 6.418 7.794 5.881 13.349-.044.472.157.99.321 1.458 2.025 5.578.74 10.437-3.409 14.501-4.055 3.979-8.879 4.215-14.035 2.494-1.152-.385-2.518-.787-3.639-.531-4.533 1.04-8.669-.017-12.629-2.049-6.9-3.539-12.389-8.837-17.644-14.408-9.33-9.885-16.178-21.579-23.798-32.71-2.105-3.065-4.287-6.083-6.435-9.117a20.12 20.12 0 00-.187-.264z"
          ></path>
        </g>
        <g transform="translate(236.144 322.27)">
          <path
            fill="#f14670"
            fillOpacity="1"
            fillRule="evenodd"
            stroke="none"
            d="M0 0c-3.539 3.982-8.077 5.539-13.362 4.957-.587-.066-1.244-.403-1.563.548-.88 2.614-2.632 4.62-4.801 6.216-5.782 4.253-12.337 5.635-19.385 4.846-.696-.079-1.555-.589-1.934-1.165-.538-.815.196-1.489.807-2.091 2.563-2.521 2.582-5.625.048-8.109-.586-.573-1.249-1.078-1.931-1.537-2.621-1.765-5.387-3.342-7.871-5.278-4.9-3.815-8.812-10.068-5.106-17.872-2.53-2.34-3.511-5.339-2.958-8.69.3-1.803.982-3.605 1.811-5.244 2.904-5.738 9.328-8.795 15.682-7.508.46.093.83.093 1.164.012.383.262.84.443 1.381.513.086.059.172.12.268.175.383.223.76.359 1.125.427l4.776 2.786c.019-.02 1.699 1.371 1.68 1.392 1.593 1.636 4.927 4.725 4.993 4.623.038.091 7.835 9.321 8.036 9.736 2.077 4.225 7.529 4.074 7.578 4.064-.014.044 6.239.052 7.787-2.754.208-.069.774-.814.885-.897a.2.2 0 01.019-.012c.103-.037.209-.079.313-.127-.066.554.077 1.04.579 1.62C4.905-13.76 4.908-5.527 0 0"
          ></path>
        </g>
        <g transform="translate(236.144 322.27)">
          <path
            fill="none"
            stroke="#472d30"
            strokeDasharray="none"
            strokeLinecap="butt"
            strokeLinejoin="miter"
            strokeMiterlimit="10"
            strokeOpacity="1"
            strokeWidth="1"
            d="M0 0c-3.539 3.982-8.077 5.539-13.362 4.957-.587-.066-1.244-.403-1.563.548-.88 2.614-2.632 4.62-4.801 6.216-5.782 4.253-12.337 5.635-19.385 4.846-.696-.079-1.555-.589-1.934-1.165-.538-.815.196-1.489.807-2.091 2.563-2.521 2.582-5.625.048-8.109-.586-.573-1.249-1.078-1.931-1.537-2.621-1.765-5.387-3.342-7.871-5.278-4.9-3.815-8.812-10.068-5.106-17.872-2.53-2.34-3.511-5.339-2.958-8.69.3-1.803.982-3.605 1.811-5.244 2.904-5.738 9.328-8.795 15.682-7.508.46.093.83.093 1.164.012.383.262.84.443 1.381.513.086.059.172.12.268.175.383.223.76.359 1.125.427l4.776 2.786c.019-.02 1.699 1.371 1.68 1.392 1.593 1.636 4.927 4.725 4.993 4.623.038.091 7.835 9.321 8.036 9.736 2.077 4.225 7.529 4.074 7.578 4.064-.014.044 6.239.052 7.787-2.754.208-.069.774-.814.885-.897a.2.2 0 01.019-.012c.103-.037.209-.079.313-.127-.066.554.077 1.04.579 1.62C4.905-13.76 4.908-5.527 0 0z"
          ></path>
        </g>
        <g transform="translate(42.378 142.425)">
          <path
            fill="#f14670"
            fillOpacity="1"
            fillRule="nonzero"
            stroke="none"
            d="M0 0c0-1.629.394-2.788 1.185-3.479.789-.692 2.099-1.037 3.929-1.037 3.991 0 7.275 3.253 9.854 9.764-2.495.895-4.824 1.383-6.985 1.465h-.25c-2.494 0-4.449-.692-5.862-2.075C.624 3.417 0 1.871 0 0m73.467-1.587v-.244a1.12 1.12 0 000-.732c-.084-.083-.125-.165-.125-.245l-.124-.122c0-.081-.043-.122-.125-.122-4.658-5.206-10.686-7.81-18.086-7.81-3.243 0-6.632.549-10.166 1.647-3.535 1.099-6.342 2.197-8.419 3.295-2.08 1.099-4.989 2.705-8.732 4.821a340.803 340.803 0 01-5.987 3.418c-3.91-6.346-9.273-9.6-16.09-9.764h-.499c-3.161 0-5.301.754-6.424 2.258C-2.433-3.683-2.994-1.953-2.994 0c0 2.685.914 4.922 2.744 6.713C1.828 8.665 4.572 9.6 7.983 9.52c2.826 0 5.57-.205 8.232-.611 2.744 9.032 4.116 21.562 4.116 37.592 0 28.315-4.533 42.675-13.596 43.083h-.499c-4.989 0-8.774-2.563-11.35-7.688-2.662-5.697-3.701-12.633-3.118-20.81.58-8.178 2.369-14.139 5.363-17.881.581-.731.477-1.403-.312-2.014-.791-.61-1.477-.548-2.058.184-3.243 4.149-5.219 10.598-5.925 19.345-.707 8.745.394 16.211 3.306 22.396C-4.699 89.38 0 92.514 6.236 92.514c3.824 0 7.173-.998 10.041-2.991 2.869-1.994 5.28-4.942 7.235-8.848 1.953-3.906 3.408-8.748 4.365-14.525.956-5.777 1.435-12.49 1.435-20.137 0-15.786-1.415-27.869-4.241-36.249a115.59 115.59 0 00-.998-2.807c2.495-.896 5.904-2.401 10.228-4.516C37.544.895 40.08-.265 41.91-1.037c1.828-.775 4.406-1.547 7.734-2.319 3.324-.775 6.776-1.16 10.352-1.16 4.323 0 7.858 1.057 10.602 3.173l.499.366.125.123.125.122h.249c.082 0 .144.019.187.061.041.04.082.061.125.061h.312c.082-.082.206-.122.374-.122l.125-.122h.125l.124-.123c.25-.164.415-.366.499-.61"
          ></path>
        </g>
        <g transform="translate(114.597 169.031)">
          <path
            fill="#f14670"
            fillOpacity="1"
            fillRule="nonzero"
            stroke="none"
            d="M0 0c.25 3.824.749 7.445 1.497 10.862a8.338 8.338 0 01-.499.855c-.249.324-.542.65-.873.976-.667.325-1.54.367-2.62.122-3.243-.896-6.423-3.6-9.542-8.116-3.118-4.515-4.677-9.501-4.677-14.951 0-2.849.437-5.064 1.31-6.651.873-1.587 1.765-2.38 2.681-2.38 1.248 0 2.577.671 3.992 2.013 1.413 1.343 2.619 2.949 3.617 4.822v.121C-3.617-9.724-1.996-5.858-.25-.732c0 .08.02.202.063.366A.761.761 0 000 0m31.433 4.028l1.309-.732c.873-.488 1.061-1.141.562-1.953l-.873-1.465C28.189-7.2 24.738-12.408 22.078-15.744c-.084-.082-.125-.164-.125-.244l-.249-.122c0-.082-.043-.122-.125-.122-4.159-5.046-7.858-7.568-11.101-7.568-2.994 0-5.407 1.221-7.235 3.662C1.413-17.617.291-13.833-.125-8.787a50.106 50.106 0 00-2.37-5.126c-3.66-6.591-7.983-9.887-12.972-9.887-2.827 0-5.301 1.179-7.421 3.54-2.121 2.359-3.181 6.021-3.181 10.985 0 6.59 2.267 12.651 6.798 18.185 4.531 5.532 9.125 8.299 13.783 8.299 3.243 0 5.738-.773 7.484-2.318.166-.082.331-.204.499-.367h.125c.165.733.602 1.322 1.309 1.77a5.155 5.155 0 002.245.793c.79.08 1.559.04 2.308-.122 1.164-.326 2.058-.976 2.682-1.952.623-.977.727-2.158.312-3.54-.833-3.173-1.497-6.59-1.997-10.252a53.085 53.085 0 01-.374-10.863c.25-3.581.999-6.144 2.246-7.689.914-1.058 2.036-1.546 3.367-1.464.749.244 2.327 1.748 4.74 4.516l.125.244h.125c2.576 3.173 5.944 8.299 10.103 15.378l.873 1.465.749 1.22"
          ></path>
        </g>
        <g transform="translate(216.751 225.54)">
          <path
            fill="#f14670"
            fillOpacity="1"
            fillRule="nonzero"
            stroke="none"
            d="M0 0c-3.577-4.558-6.633-10.66-9.168-18.307-2.538-7.65-3.93-14.485-4.179-20.504 1.578.487 3.181 1.178 4.802 2.074a41.224 41.224 0 014.865 3.174 43.27 43.27 0 014.677 4.088 38.645 38.645 0 014.179 5.004 41.856 41.856 0 013.368 5.676c.955 1.953 1.703 4.067 2.245 6.346.54 2.277.811 4.596.811 6.957 0 6.835-1.54 10.252-4.616 10.252-2.079 0-4.365-1.507-6.86-4.516C.04.162 0 .08 0 0m9.854 9.276c1.828 0 3.429-.265 4.801-.794 1.372-.53 2.474-1.262 3.306-2.196a19.033 19.033 0 002.12-2.869c.581-.976.998-2.055 1.248-3.234.249-1.181.415-2.157.499-2.929.081-.775.124-1.525.124-2.258 0-5.452-1.726-10.923-5.176-16.415-3.452-5.494-7.921-10.13-13.409-13.914-5.488-3.784-11.1-6.042-16.839-6.774a429.4 429.4 0 00-.436-18.978c-.293-6.551-.561-11.637-.811-15.257-.249-3.621-.417-5.757-.499-6.408v-.366c-.167-1.14-.333-2.035-.499-2.685a30.825 30.825 0 00-.686-2.258c-.292-.855-.729-1.483-1.309-1.892-.583-.406-1.331-.61-2.246-.61-1.247 0-2.245.448-2.993 1.343-1.166 1.22-1.54 3.417-1.123 6.591.25 2.277.643 8.135 1.185 17.575.54 9.437.893 20.523 1.06 33.259.166 12.732-.458 22.475-1.871 29.23-.249 1.465-.666 2.725-1.247 3.784-.583 1.056-1.29 1.87-2.12 2.441-.832.568-1.705.854-2.62.854-3.243 0-6.133-1.099-8.668-3.295-2.538-2.198-4.388-5.248-5.551-9.154v-.122c-1.247-5.941-1.31-11.983-.187-18.125 1.122-6.145 2.888-10.721 5.301-13.731.581-.731.477-1.403-.312-2.013-.792-.611-1.478-.549-2.058.183-1.996 2.521-3.639 6.121-4.927 10.801-1.29 4.678-1.871 9.783-1.746 15.318.125 5.532 1.185 10.332 3.18 14.402 3.575 7.078 9.437 10.618 17.588 10.618 2.66 0 4.989-1.019 6.984-3.051 1.997-2.035 3.369-4.802 4.117-8.3 1.079-5.208 1.828-12.409 2.245-21.602 1.247 4.718 2.744 9.071 4.491 13.059 1.995 4.718 4.116 8.665 6.361 11.839C1.122 6.631 5.363 9.276 9.854 9.276"
          ></path>
        </g>
        <g transform="translate(239.95 180.748)">
          <path
            fill="#f14670"
            fillOpacity="1"
            fillRule="nonzero"
            stroke="none"
            d="M0 0c-3.492-2.36-5.862-6.916-7.109-13.669 2.994 1.626 5.591 3.579 7.796 5.858C2.889-5.534 4.033-3.255 4.116-.977 4.116 0 3.742.61 2.994.854 2.246 1.099 1.248.812 0 0m24.448-8.482c.83-.531.998-1.202.499-2.014-1.914-2.849-3.493-5.107-4.74-6.774-1.247-1.668-2.952-3.844-5.114-6.53-2.163-2.684-4.303-4.902-6.424-6.651-2.12-1.751-4.221-3.072-6.299-3.967-.167-.082-.333-.164-.499-.244-1.58-.57-3.118-.855-4.614-.855-3.577 0-6.923 1.627-10.041 4.883-3.119 3.253-4.678 7.811-4.678 13.669 0 6.997 1.684 12.489 5.052 16.477 3.367 3.986 7.297 5.98 11.787 5.98 2.077 0 3.823-.488 5.238-1.464C6.278 2.888 7.11 1.261 7.11-.854v-.123c-.084-3.336-1.643-6.449-4.677-9.336C-.604-13.202-3.95-15.5-7.608-17.209a64.61 64.61 0 01-.125-4.149c0-4.558 1.08-7.65 3.243-9.276 1.579-1.22 3.45-1.629 5.613-1.22 1.497.65 3.118 1.687 4.864 3.112 1.746 1.423 3.284 2.846 4.616 4.271 1.329 1.423 2.847 3.254 4.552 5.492 1.703 2.238 2.994 3.967 3.867 5.188a462.24 462.24 0 013.43 4.882c.499.812 1.164.955 1.996.427"
          ></path>
        </g>
        <g transform="translate(353.081 204.06)">
          <path
            fill="#f14670"
            fillOpacity="1"
            fillRule="nonzero"
            stroke="none"
            d="M0 0c.415-.814.165-1.445-.749-1.892-.916-.448-1.58-.225-1.995.671-1.248 2.522-3.848 4.516-7.796 5.981a34.718 34.718 0 01-12.162 2.197c-3.909 0-7.92-.326-12.036-.977-4.116-.652-7.403-1.302-9.854-1.953-2.454-.652-5.76-1.628-9.917-2.928-10.56-3.173-19.002-5.004-25.32-5.493-1.664-8.219-2.495-17.046-2.495-26.484 0-2.93.082-5.676.25-8.238.166-2.564.415-4.822.748-6.775.332-1.952.686-3.764 1.06-5.43.374-1.669.789-3.094 1.247-4.273a40.278 40.278 0 011.373-3.173c.456-.936.914-1.689 1.372-2.257.456-.571.873-1.038 1.247-1.404.375-.366.706-.632.998-.794.291-.164.518-.244.686-.244.83 0 1.912 1.749 3.243 5.248.748 1.953 1.829 5.288 3.243 10.009 2.162 7.402 3.949 12.65 5.364 15.744.415.895 1.059 1.159 1.932.793.874-.366 1.143-.997.812-1.891-1.415-3.011-3.161-8.137-5.239-15.378-1.415-4.72-2.453-8.056-3.118-10.009v-.121h-.125c-2.413-6.755-5.198-10.131-8.357-10.131-4.241 0-7.942 3.314-11.101 9.947-3.162 6.631-4.741 15.684-4.741 27.156 0 9.682.874 18.876 2.62 27.583-6.568.569-11.974 3.213-16.215 7.934-.664.732-.623 1.422.125 2.074.748.651 1.456.611 2.12-.121 3.826-4.232 8.649-6.592 14.469-7.08 2.661 12.124 6.486 22.05 11.475 29.781.749 1.22 1.704 2.053 2.869 2.502 1.164.446 2.245.385 3.243-.183.914-.489 1.497-1.282 1.746-2.38.25-1.099 0-2.624-.748-4.577-.25-.408-.624-1.141-1.123-2.197-3.825-7.731-6.61-15.298-8.356-22.702 5.819.488 13.761 2.277 23.823 5.371 4.323 1.301 7.712 2.277 10.166 2.929 2.452.65 5.8 1.322 10.041 2.014 4.241.69 8.398 1.037 12.473 1.037 4.74 0 9.334-.875 13.783-2.624C-4.472 5.512-1.497 3.092 0 0"
          ></path>
        </g>
        <g transform="translate(341.978 172.571)">
          <path
            fill="#f14670"
            fillOpacity="1"
            fillRule="nonzero"
            stroke="none"
            d="M0 0c.415 0 .768-.144 1.06-.428a1.4 1.4 0 00.436-1.037c0-.408-.145-.753-.436-1.037A1.458 1.458 0 000-2.93H-11.601c-1.331 0-2.578.162-3.742.489-1.165.324-2.1.69-2.805 1.098-.708.406-1.415.995-2.122 1.77-.707.772-1.206 1.383-1.497 1.831-.292.446-.685 1.117-1.184 2.013-.748 1.301-1.372 2.198-1.871 2.686-.499.487-1.165.731-1.995.731-2.329 0-4.866-3.214-7.61-9.641v-.122c-2.412-6.347-4.116-14.117-5.113-23.312v-.122c-.084-.814-.499-1.385-1.248-1.709a3.732 3.732 0 00-1.372-.244c-1.247 0-2.537.428-3.866 1.282-1.331.855-2.329 1.892-2.995 3.113-1.995 4.149-3.118 9.865-3.367 17.147-.25 7.281.374 12.917 1.871 16.904.331 1.057 1.101 1.81 2.308 2.258 1.204.446 2.389.507 3.555.183a5.856 5.856 0 001.932-1.037c.54-.449.936-1.059 1.186-1.831.249-.774.249-1.648 0-2.624-2.245-9.114-2.288-17.902-.125-26.363 1.08 6.671 2.577 12.45 4.49 17.331 0 .08.041.203.125.367 1.912 4.717 4.073 8.298 6.486 10.74 2.411 2.441 4.865 3.661 7.36 3.661 1.746 0 3.304-.244 4.677-.731a9.486 9.486 0 003.617-2.32c1.039-1.058 1.828-1.953 2.37-2.685.54-.733 1.185-1.79 1.933-3.173 1.081-1.709 1.975-2.93 2.682-3.661C-7.216.366-6.404 0-5.488 0z"
          ></path>
        </g>
        <g transform="translate(362.808 169.031)">
          <path
            fill="#f14670"
            fillOpacity="1"
            fillRule="nonzero"
            stroke="none"
            d="M0 0c.249 3.824.748 7.445 1.496 10.862a8.158 8.158 0 01-.499.855c-.249.324-.541.65-.873.976-.666.325-1.539.367-2.619.122-3.243-.896-6.424-3.6-9.542-8.116-3.118-4.515-4.678-9.501-4.678-14.951 0-2.849.437-5.064 1.31-6.651.873-1.587 1.766-2.38 2.682-2.38 1.247 0 2.577.671 3.992 2.013 1.413 1.343 2.619 2.949 3.617 4.822v.121C-3.617-9.724-1.996-5.858-.25-.732c0 .08.02.202.063.366A.761.761 0 000 0m31.432 4.028l1.31-.732c.873-.488 1.06-1.141.561-1.953L32.43-.122C28.189-7.2 24.737-12.408 22.077-15.744c-.084-.082-.125-.164-.125-.244l-.249-.122c0-.082-.043-.122-.125-.122-4.159-5.046-7.858-7.568-11.1-7.568-2.995 0-5.408 1.221-7.236 3.662C1.412-17.617.29-13.833-.125-8.787a50.32 50.32 0 00-2.37-5.126c-3.66-6.591-7.983-9.887-12.972-9.887-2.828 0-5.302 1.179-7.422 3.54-2.12 2.359-3.18 6.021-3.18 10.985 0 6.59 2.266 12.651 6.798 18.185 4.531 5.532 9.125 8.299 13.783 8.299 3.242 0 5.737-.773 7.483-2.318.166-.082.331-.204.499-.367h.125c.165.733.602 1.322 1.31 1.77a5.15 5.15 0 002.245.793c.789.08 1.559.04 2.307-.122 1.164-.326 2.058-.976 2.682-1.952.624-.977.727-2.158.312-3.54-.832-3.173-1.496-6.59-1.996-10.252a52.944 52.944 0 01-.374-10.863c.249-3.581.998-6.144 2.246-7.689.914-1.058 2.036-1.546 3.367-1.464.749.244 2.327 1.748 4.74 4.516l.125.244h.124c2.577 3.173 5.944 8.299 10.104 15.378l.873 1.465.748 1.22"
          ></path>
        </g>
        <g transform="translate(245.407 268.32)">
          <path
            fill="#4fbcaf"
            fillOpacity="1"
            fillRule="nonzero"
            stroke="none"
            d="M0 0c-7.857-2.355 1.278-18.264 1.278-18.264s18.267 4.713 14.289 11.341c-1.994 3.324-9.135.003-9.135.003S3.685 1.106 0 0"
          ></path>
        </g>
        <g transform="translate(245.407 268.32)">
          <path
            fill="none"
            stroke="#231f20"
            strokeDasharray="none"
            strokeLinecap="butt"
            strokeLinejoin="miter"
            strokeMiterlimit="10"
            strokeOpacity="1"
            strokeWidth="1"
            d="M0 0c-7.857-2.355 1.278-18.264 1.278-18.264s18.267 4.713 14.289 11.341c-1.994 3.324-9.135.003-9.135.003S3.685 1.106 0 0z"
          ></path>
        </g>
        <g transform="translate(257.146 309.204)">
          <path
            fill="#4fbcaf"
            fillOpacity="1"
            fillRule="nonzero"
            stroke="none"
            d="M0 0c-3.185-5.915 11.317-9.839 11.317-9.839S19.165 3.47 13.024 5.005c-3.081.77-5.29-5.289-5.29-5.289S1.495 2.772 0 0"
          ></path>
        </g>
        <g transform="translate(257.146 309.204)">
          <path
            fill="none"
            stroke="#231f20"
            strokeDasharray="none"
            strokeLinecap="butt"
            strokeLinejoin="miter"
            strokeMiterlimit="10"
            strokeOpacity="1"
            strokeWidth="1"
            d="M0 0c-3.185-5.915 11.317-9.839 11.317-9.839S19.165 3.47 13.024 5.005c-3.081.77-5.29-5.289-5.29-5.289S1.495 2.772 0 0z"
          ></path>
        </g>
      </g>
    </g>
  </g>
</svg>